<svg xmlns="http://www.w3.org/2000/svg" viewBox="0 0 900 440" role="img" aria-labelledby="title desc">
  <title id="title">Logo fictício NossoDinheiro</title>
  <desc id="desc">Marca fictícia para uma obra narrativa da Mesa 42.</desc>
  <defs>
    <linearGradient id="bg" x1="0" y1="0" x2="1" y2="1">
      <stop offset="0" stop-color="#0d2b1c"/>
      <stop offset="0.5" stop-color="#123a25"/>
      <stop offset="1" stop-color="#d6ad55"/>
    </linearGradient>
    <linearGradient id="card" x1="0" y1="0" x2="1" y2="1">
      <stop offset="0" stop-color="#f8e8b5"/>
      <stop offset="1" stop-color="#b9852f"/>
    </linearGradient>
    <filter id="shadow" x="-20%" y="-20%" width="140%" height="140%">
      <feDropShadow dx="0" dy="18" stdDeviation="16" flood-color="#000" flood-opacity="0.45"/>
    </filter>
  </defs>
  <rect width="900" height="440" rx="54" fill="#07120d"/>
  <rect x="22" y="22" width="856" height="396" rx="42" fill="url(#bg)" opacity="0.92"/>
  <g filter="url(#shadow)">
    <rect x="94" y="86" width="150" height="205" rx="18" fill="url(#card)" transform="rotate(-9 169 188)"/>
    <rect x="132" y="68" width="150" height="205" rx="18" fill="#10291b" stroke="#f5dc9b" stroke-width="7" transform="rotate(4 207 170)"/>
    <path d="M187 112h72v20h-72zM176 158h92v18h-92zM186 203h72v18h-72z" fill="#f5dc9b" opacity=".92"/>
    <circle cx="238" cy="258" r="29" fill="#18d985"/>
    <path d="M225 259l9 10 19-25" fill="none" stroke="#04100b" stroke-width="7" stroke-linecap="round" stroke-linejoin="round"/>
  </g>
  <text x="320" y="178" fill="#fff8e7" font-family="Barlow, Arial, sans-serif" font-size="74" font-weight="800" letter-spacing="-1">Nosso</text>
  <text x="320" y="254" fill="#f5dc9b" font-family="Barlow, Arial, sans-serif" font-size="78" font-weight="900" letter-spacing="-2">Dinheiro</text>
  <text x="324" y="312" fill="#d9f6e7" font-family="Barlow, Arial, sans-serif" font-size="30" font-weight="700" letter-spacing="4">FINANCIAMENTO COLETIVO FICTÍCIO</text>
  <path d="M325 336h398" stroke="#18d985" stroke-width="5" stroke-linecap="round" opacity=".8"/>
</svg>
