<svg xmlns="http://www.w3.org/2000/svg" viewBox="0 0 900 240" role="img" aria-labelledby="title desc">
  <title id="title">CC Master</title>
  <desc id="desc">Logotipo textual CC Master</desc>
  <defs>
    <linearGradient id="g" x1="0" x2="1" y1="0" y2="1">
      <stop offset="0" stop-color="#ffe066"/><stop offset="0.55" stop-color="#ffb703"/><stop offset="1" stop-color="#fb5607"/>
    </linearGradient>
    <filter id="shadow" x="-10%" y="-20%" width="120%" height="150%">
      <feDropShadow dx="0" dy="8" stdDeviation="6" flood-color="#000" flood-opacity="0.55"/>
    </filter>
  </defs>
  <rect x="18" y="18" width="864" height="204" rx="34" fill="#111" stroke="url(#g)" stroke-width="12"/>
  <path d="M73 154 C55 154 43 140 43 120 C43 100 57 86 77 86 L146 86 L146 116 L85 116 C77 116 72 120 72 127 C72 134 77 138 85 138 L146 138 L146 170 L73 170 Z" fill="url(#g)"/>
  <path d="M177 154 C159 154 147 140 147 120 C147 100 161 86 181 86 L250 86 L250 116 L189 116 C181 116 176 120 176 127 C176 134 181 138 189 138 L250 138 L250 170 L177 170 Z" fill="url(#g)"/>
  <text x="290" y="151" font-family="Impact, Arial Black, sans-serif" font-size="86" letter-spacing="3" fill="#f8f9fa" filter="url(#shadow)">MASTER</text>
  <text x="294" y="190" font-family="Verdana, Arial, sans-serif" font-size="24" letter-spacing="8" fill="#ffde59">CARD COMMUNITY</text>
</svg>
